<svg xmlns="http://www.w3.org/2000/svg" version="1.1" viewBox="22.37 92.39 205.23 65.23"><desc>Created with Snap</desc><defs/><g transform="matrix(0.0728,0,0,0.0728,21.5479,157.0236)"><g><g transform="matrix(1.024,0,0,-1.024,0,0)"><path d="M352 0L117 0L11 860L175 860L238 275L294 860L458 860L352 0ZM712 -8Q608 -8 554 55Q500 119 500 234L500 643Q500 754 554 810Q608 867 712 867Q816 867 870 810Q924 754 924 643L924 234Q924 118 870 55Q816 -8 712 -8ZM712 150Q735 150 743 170Q751 190 751 226L751 646Q751 674 743 691Q736 709 713 709Q670 709 670 644L670 225Q670 188 679 169Q688 150 712 150ZM1259 0L1097 0L1097 283L960 859L1130 859L1178 568L1226 859L1396 859L1259 283L1259 0ZM1583 0L1416 0L1499 859L1790 859L1872 0L1709 0L1697 139L1593 139L1583 0ZM1638 713L1606 276L1684 276L1646 713L1638 713ZM2101 -8Q2008 -8 1962 57Q1917 123 1917 256L1917 626Q1917 745 1970 806Q2023 867 2128 867Q2213 867 2260 833Q2307 799 2325 734Q2343 669 2343 567L2175 567L2175 644Q2175 675 2166 692Q2158 709 2136 709Q2087 709 2087 645L2087 229Q2087 190 2097 170Q2107 150 2132 150Q2157 150 2167 170Q2177 190 2177 229L2177 352L2131 352L2131 500L2341 500L2341 0L2272 0L2243 72Q2197 -8 2101 -8ZM2764 0L2409 0L2409 859L2753 859L2753 693L2584 693L2584 526L2746 526L2746 364L2584 364L2584 167L2764 167L2764 0Z" fill="#6daedb" style=""/></g></g></g></svg>